<?xml version="1.0" encoding="UTF-8"?>
<svg width="200" height="50" viewBox="0 0 200 50" fill="none" xmlns="http://www.w3.org/2000/svg">
  <!-- Enhanced house icon with roof and subtle shadow -->
  <path d="M10 45V25L30 10L50 25V45H40V28H20V45H10Z" fill="#8B5CF6" />
  <path d="M30 10L10 25V24L30 9L50 24V25L30 10Z" fill="#7C3AED" />
  
  <!-- Improved magnifying glass with depth -->
  <circle cx="35" cy="25" r="8" stroke="#8B5CF6" stroke-width="3.5" fill="#111827" stroke-opacity="0.9" />
  <path d="M41 31L47 37" stroke="#8B5CF6" stroke-width="3.5" stroke-linecap="round" stroke-opacity="0.9" />
  <circle cx="35" cy="25" r="6" fill="#8B5CF6" fill-opacity="0.2" />
  
  <!-- Text converted to paths for better rendering -->
  <path d="M64.7812 30H60.8047V17.4688H66.1328C67.3516 17.4688 68.3125 17.7734 69.0156 18.3828C69.7188 18.9922 70.0703 19.8281 70.0703 20.8906C70.0703 21.6094 69.8828 22.2266 69.5078 22.7422C69.1328 23.2578 68.6172 23.625 67.9609 23.8438C68.7422 23.9844 69.3672 24.3438 69.8359 24.9219C70.3047 25.5 70.5391 26.2031 70.5391 27.0312C70.5391 28.1562 70.1562 29.0547 69.3906 29.7266C68.625 30.3984 67.5781 30.7344 66.25 30.7344C65.8594 30.7344 65.3438 30.7188 64.7031 30.6875C64.7344 30.4531 64.75 30.2188 64.7812 30ZM63.9219 24.7969V28.0156H66.0312C66.6562 28.0156 67.1562 27.8594 67.5312 27.5469C67.9062 27.2344 68.0938 26.8125 68.0938 26.2812C68.0938 25.2969 67.4375 24.8047 66.125 24.7969H63.9219ZM63.9219 22.9844H65.8438C67.3125 22.9688 68.0469 22.4219 68.0469 21.3438C68.0469 20.7812 67.875 20.3594 67.5312 20.0781C67.1875 19.7969 66.6484 19.6562 65.9141 19.6562H63.9219V22.9844Z" fill="white"/>
  <path d="M78.3359 30C78.2266 29.7812 78.1406 29.4219 78.0781 28.9219C77.3594 29.7969 76.4609 30.2344 75.3828 30.2344C74.3984 30.2344 73.5781 29.9375 72.9219 29.3438C72.2656 28.75 71.9375 28.0156 71.9375 27.1406C71.9375 26.0469 72.3438 25.1953 73.1562 24.5859C73.9688 23.9766 75.125 23.6719 76.625 23.6719H78.0312V23.0156C78.0312 22.5 77.8828 22.0859 77.5859 21.7734C77.2891 21.4609 76.8359 21.3047 76.2266 21.3047C75.6953 21.3047 75.2578 21.4375 74.9141 21.7031C74.5703 21.9688 74.3984 22.3125 74.3984 22.7344H72.2812C72.2812 22.1719 72.4609 21.6406 72.8203 21.1406C73.1797 20.6406 73.6797 20.25 74.3203 19.9688C74.9609 19.6875 75.6719 19.5469 76.4531 19.5469C77.6406 19.5469 78.5781 19.8359 79.2656 20.4141C79.9531 20.9922 80.3047 21.8047 80.3203 22.8516V27.5391C80.3203 28.4453 80.4375 29.1641 80.6719 29.6953V30H78.3359ZM75.7656 28.3594C76.2344 28.3594 76.6719 28.2422 77.0781 28.0078C77.4844 27.7734 77.7812 27.4688 77.9688 27.0938V25.1016H76.8516C74.9141 25.1016 73.9453 25.6797 73.9453 26.8359C73.9453 27.3047 74.0938 27.6719 74.3906 27.9375C74.6875 28.2031 75.1797 28.3594 75.7656 28.3594Z" fill="white"/>
  <path d="M83.4453 24.7422C83.4453 23.1172 83.7734 21.8125 84.4297 20.8281C85.0859 19.8438 85.9922 19.3516 87.1484 19.3516C88.1797 19.3516 89.0156 19.7266 89.6562 20.4766V15.5H91.8672V30H89.8672L89.75 28.9688C89.0938 29.7969 88.2266 30.2109 87.1484 30.2109C85.9922 30.2109 85.0859 29.7188 84.4297 28.7344C83.7734 27.75 83.4453 26.4688 83.4453 24.8906V24.7422ZM85.6562 24.9609C85.6562 26.0078 85.8359 26.8203 86.1953 27.3984C86.5547 27.9766 87.0703 28.2656 87.7422 28.2656C88.6328 28.2656 89.2812 27.8594 89.6875 27.0469V22.6328C89.2969 21.8359 88.6562 21.4375 87.7656 21.4375C87.0781 21.4375 86.5547 21.7266 86.1953 22.3047C85.8359 22.8828 85.6562 23.7656 85.6562 24.9609Z" fill="#8B5CF6"/>
  <path d="M94.4609 24.7422C94.4609 23.1172 94.7891 21.8125 95.4453 20.8281C96.1016 19.8438 97.0078 19.3516 98.1641 19.3516C99.1953 19.3516 100.031 19.7266 100.672 20.4766V15.5H102.883V30H100.883L100.766 28.9688C100.109 29.7969 99.2422 30.2109 98.1641 30.2109C97.0078 30.2109 96.1016 29.7188 95.4453 28.7344C94.7891 27.75 94.4609 26.4688 94.4609 24.8906V24.7422ZM96.6719 24.9609C96.6719 26.0078 96.8516 26.8203 97.2109 27.3984C97.5703 27.9766 98.0859 28.2656 98.7578 28.2656C99.6484 28.2656 100.297 27.8594 100.703 27.0469V22.6328C100.312 21.8359 99.6719 21.4375 98.7812 21.4375C98.0938 21.4375 97.5703 21.7266 97.2109 22.3047C96.8516 22.8828 96.6719 23.7656 96.6719 24.9609Z" fill="#8B5CF6"/>
  <path d="M110.117 30.2344C108.664 30.2344 107.5 29.7656 106.625 28.8281C105.75 27.8906 105.312 26.625 105.312 25.0312V24.7422C105.312 23.6641 105.508 22.6953 105.898 21.8359C106.289 20.9766 106.844 20.3125 107.562 19.8438C108.281 19.375 109.07 19.1406 109.93 19.1406C111.32 19.1406 112.391 19.5938 113.141 20.5C113.891 21.4062 114.266 22.7031 114.266 24.3906V25.2969H107.523C107.555 26.2969 107.82 27.0859 108.32 27.6641C108.82 28.2422 109.461 28.5312 110.242 28.5312C111.305 28.5312 112.18 28.0781 112.867 27.1719L114.102 28.2656C113.711 28.8906 113.18 29.3828 112.508 29.7422C111.836 30.0703 111.039 30.2344 110.117 30.2344ZM109.93 20.8438C109.289 20.8438 108.766 21.0938 108.359 21.5938C107.953 22.0938 107.711 22.8047 107.633 23.7266H112.055V23.5703C112.008 22.6797 111.805 22.0078 111.445 21.5547C111.086 21.0859 110.586 20.8438 109.93 20.8438Z" fill="#8B5CF6"/>
  <path d="M120.75 30.2344C119.297 30.2344 118.133 29.7734 117.258 28.8516C116.383 27.9297 115.945 26.6875 115.945 25.125V24.7656C115.945 23.6719 116.141 22.6953 116.531 21.8359C116.922 20.9766 117.469 20.3125 118.172 19.8438C118.875 19.375 119.633 19.1406 120.445 19.1406C121.852 19.1406 122.93 19.5938 123.68 20.5C124.43 21.4062 124.805 22.7109 124.805 24.4141V25.3438H118.156C118.188 26.3125 118.469 27.0859 119 27.6641C119.531 28.2422 120.211 28.5312 121.039 28.5312C121.68 28.5312 122.219 28.3984 122.656 28.1328C123.094 27.8672 123.477 27.5156 123.805 27.0781L124.734 28.0469C123.828 29.5156 122.516 30.2344 120.75 30.2344ZM120.445 20.8438C119.773 20.8438 119.219 21.0859 118.781 21.5703C118.344 22.0547 118.078 22.7422 117.984 23.6328H122.594V23.4766C122.547 22.6328 122.328 21.9844 121.938 21.5312C121.547 21.0781 121.055 20.8438 120.445 20.8438Z" fill="#8B5CF6"/>
  <path d="M128 15.5V17.9375H126.195V15.5H128ZM128 19.3516V30H125.82V19.3516H128Z" fill="white"/>
  <path d="M138.133 30C138.023 29.7812 137.938 29.4219 137.875 28.9219C137.156 29.7969 136.258 30.2344 135.18 30.2344C134.195 30.2344 133.375 29.9375 132.719 29.3438C132.062 28.75 131.734 28.0156 131.734 27.1406C131.734 26.0469 132.141 25.1953 132.953 24.5859C133.766 23.9766 134.922 23.6719 136.422 23.6719H137.828V23.0156C137.828 22.5 137.68 22.0859 137.383 21.7734C137.086 21.4609 136.633 21.3047 136.023 21.3047C135.492 21.3047 135.055 21.4375 134.711 21.7031C134.367 21.9688 134.195 22.3125 134.195 22.7344H132.078C132.078 22.1719 132.258 21.6406 132.617 21.1406C132.977 20.6406 133.477 20.25 134.117 19.9688C134.758 19.6875 135.469 19.5469 136.25 19.5469C137.438 19.5469 138.375 19.8359 139.062 20.4141C139.75 20.9922 140.102 21.8047 140.117 22.8516V27.5391C140.117 28.4453 140.234 29.1641 140.469 29.6953V30H138.133ZM135.562 28.3594C136.031 28.3594 136.469 28.2422 136.875 28.0078C137.281 27.7734 137.578 27.4688 137.766 27.0938V25.1016H136.648C134.711 25.1016 133.742 25.6797 133.742 26.8359C133.742 27.3047 133.891 27.6719 134.188 27.9375C134.484 28.2031 134.977 28.3594 135.562 28.3594Z" fill="white"/>
  <path d="M143.242 19.3516L143.289 20.625C144.039 19.7344 145.008 19.2891 146.195 19.2891C148.398 19.2891 149.508 20.5312 149.523 23.0156V30H147.312V23.0156C147.312 22.3281 147.164 21.8359 146.867 21.5391C146.57 21.2422 146.102 21.0938 145.461 21.0938C144.945 21.0938 144.492 21.2266 144.102 21.4922C143.711 21.7578 143.406 22.1094 143.188 22.5469V30H140.977V19.3516H143.242Z" fill="white"/>
</svg> 